<svg xmlns="http://www.w3.org/2000/svg" xmlns:xlink="http://www.w3.org/1999/xlink" width="100%" height="100%" version="1.1" viewBox="0 0 467 559" xml:space="preserve" style="fill-rule:evenodd;clip-rule:evenodd;stroke-linejoin:round;stroke-miterlimit:2"><rect width="7.766" height="7.769" x="0" y="15.281" style="fill:#545454"/><rect width="7.765" height="7.77" x="15.287" y="0" style="fill:#545454"/><rect width="7.765" height="7.769" x="15.287" y="15.281" style="fill:#545454"/><rect width="7.769" height="7.77" x="30.572" y="0" style="fill:#545454"/><rect width="7.769" height="7.769" x="30.572" y="15.281" style="fill:#545454"/><rect width="7.769" height="7.77" x="30.572" y="30.57" style="fill:#545454"/><rect width="7.767" height="7.77" x="45.859" y="0" style="fill:#545454"/><rect width="7.767" height="7.769" x="45.859" y="15.281" style="fill:#545454"/><rect width="7.767" height="7.77" x="45.859" y="30.57" style="fill:#545454"/><rect width="7.767" height="7.76" x="45.859" y="45.86" style="fill:#545454"/><rect width="7.773" height="7.77" x="61.142" y="0" style="fill:#545454"/><rect width="7.773" height="7.769" x="61.142" y="15.281" style="fill:#545454"/><rect width="7.767" height="7.77" x="76.431" y="0" style="fill:#545454"/><rect width="7.767" height="7.769" x="76.431" y="15.281" style="fill:#545454"/><rect width="7.767" height="7.77" x="76.431" y="30.57" style="fill:#545454"/><rect width="7.767" height="7.76" x="76.431" y="45.86" style="fill:#545454"/><rect width="7.767" height="7.77" x="76.431" y="61.14" style="fill:#545454"/><rect width="7.767" height="7.77" x="76.431" y="76.43" style="fill:#545454"/><rect width="7.769" height="7.77" x="91.718" y="0" style="fill:#545454"/><rect width="7.769" height="7.769" x="91.718" y="15.281" style="fill:#545454"/><rect width="7.769" height="7.77" x="91.718" y="30.57" style="fill:#545454"/><rect width="7.769" height="7.76" x="91.718" y="45.86" style="fill:#545454"/><rect width="7.769" height="7.77" x="91.718" y="61.14" style="fill:#545454"/><rect width="7.769" height="7.77" x="91.718" y="76.43" style="fill:#545454"/><rect width="7.77" height="7.77" x="107.003" y="0" style="fill:#545454"/><rect width="7.77" height="7.769" x="107.003" y="15.281" style="fill:#545454"/><rect width="7.77" height="7.77" x="107.003" y="30.57" style="fill:#545454"/><rect width="7.77" height="7.76" x="107.003" y="45.86" style="fill:#545454"/><rect width="7.77" height="7.77" x="107.003" y="61.14" style="fill:#545454"/><rect width="7.77" height="7.77" x="107.003" y="76.43" style="fill:#545454"/><rect width="7.77" height="7.76" x="107.003" y="91.72" style="fill:#545454"/><rect width="7.769" height="7.77" x="122.289" y="0" style="fill:#545454"/><rect width="7.769" height="7.769" x="122.289" y="15.281" style="fill:#545454"/><rect width="7.769" height="7.77" x="122.289" y="76.43" style="fill:#545454"/><rect width="7.77" height="7.77" x="137.574" y="0" style="fill:#545454"/><rect width="7.77" height="7.77" x="137.574" y="76.43" style="fill:#545454"/><rect width="7.77" height="7.77" x="137.574" y="168.14" style="fill:#545454"/><rect width="7.77" height="7.77" x="137.574" y="183.43" style="fill:#545454"/><rect width="7.769" height="7.77" x="152.861" y="61.14" style="fill:#545454"/><rect width="7.769" height="7.77" x="152.861" y="76.43" style="fill:#545454"/><rect width="7.769" height="7.76" x="152.861" y="91.72" style="fill:#545454"/><rect width="7.771" height="7.76" x="168.146" y="45.86" style="fill:#545454"/><rect width="7.771" height="7.76" x="168.146" y="91.72" style="fill:#545454"/><rect width="7.77" height="7.77" x="183.433" y="0" style="fill:#545454"/><rect width="7.77" height="7.76" x="183.433" y="45.86" style="fill:#545454"/><rect width="7.77" height="7.76" x="183.433" y="91.72" style="fill:#545454"/><rect width="7.77" height="7.77" x="183.433" y="107" style="fill:#545454"/><rect width="7.77" height="7.77" x="183.433" y="122.29" style="fill:#545454"/><rect width="7.769" height="7.77" x="198.718" y="0" style="fill:#545454"/><rect width="7.769" height="7.769" x="198.718" y="15.281" style="fill:#545454"/><rect width="7.769" height="7.76" x="198.718" y="45.86" style="fill:#545454"/><rect width="7.769" height="7.77" x="198.718" y="122.29" style="fill:#545454"/><rect width="7.766" height="7.769" x="214.009" y="15.281" style="fill:#545454"/><rect width="7.766" height="7.76" x="214.009" y="45.86" style="fill:#545454"/><rect width="7.766" height="7.77" x="214.009" y="61.14" style="fill:#545454"/><rect width="7.766" height="7.77" x="214.009" y="122.29" style="fill:#545454"/><rect width="7.766" height="7.77" x="214.009" y="168.14" style="fill:#545454"/><rect width="7.766" height="7.77" x="214.009" y="183.43" style="fill:#545454"/><rect width="7.766" height="7.77" x="214.009" y="198.72" style="fill:#545454"/><rect width="7.766" height="7.77" x="214.009" y="214" style="fill:#545454"/><rect width="7.766" height="7.77" x="214.009" y="229.29" style="fill:#545454"/><rect width="7.767" height="7.76" x="229.294" y="45.86" style="fill:#545454"/><rect width="7.767" height="7.77" x="229.294" y="61.14" style="fill:#545454"/><rect width="7.767" height="7.77" x="229.294" y="122.29" style="fill:#545454"/><rect width="7.767" height="7.76" x="229.294" y="137.58" style="fill:#545454"/><rect width="7.767" height="7.77" x="229.294" y="152.86" style="fill:#545454"/><rect width="7.767" height="7.77" x="229.294" y="168.14" style="fill:#545454"/><rect width="7.767" height="7.77" x="229.294" y="183.43" style="fill:#545454"/><rect width="7.767" height="7.77" x="229.294" y="198.72" style="fill:#545454"/><rect width="7.767" height="7.77" x="229.294" y="214" style="fill:#545454"/><rect width="7.767" height="7.77" x="229.294" y="229.29" style="fill:#545454"/><rect width="7.767" height="7.77" x="229.294" y="244.58" style="fill:#545454"/><rect width="7.767" height="7.77" x="229.294" y="259.86" style="fill:#545454"/><rect width="7.771" height="7.77" x="244.576" y="30.57" style="fill:#545454"/><rect width="7.771" height="7.77" x="244.576" y="107" style="fill:#545454"/><rect width="7.771" height="7.77" x="244.576" y="122.29" style="fill:#545454"/><rect width="7.771" height="7.76" x="244.576" y="137.58" style="fill:#545454"/><rect width="7.771" height="7.77" x="244.576" y="152.86" style="fill:#545454"/><rect width="7.771" height="7.77" x="244.576" y="168.14" style="fill:#545454"/><rect width="7.771" height="7.77" x="244.576" y="183.43" style="fill:#545454"/><rect width="7.771" height="7.77" x="244.576" y="198.72" style="fill:#545454"/><rect width="7.771" height="7.77" x="244.576" y="214" style="fill:#545454"/><rect width="7.771" height="7.77" x="244.576" y="229.29" style="fill:#545454"/><rect width="7.771" height="7.77" x="244.576" y="244.58" style="fill:#545454"/><rect width="7.771" height="7.77" x="244.576" y="259.86" style="fill:#545454"/><rect width="7.771" height="7.77" x="244.576" y="275.15" style="fill:#545454"/><rect width="7.766" height="7.77" x="259.867" y="61.14" style="fill:#545454"/><rect width="7.766" height="7.77" x="259.867" y="76.43" style="fill:#545454"/><rect width="7.766" height="7.77" x="259.867" y="122.29" style="fill:#545454"/><rect width="7.766" height="7.76" x="259.867" y="137.58" style="fill:#545454"/><rect width="7.766" height="7.77" x="259.867" y="152.86" style="fill:#545454"/><rect width="7.766" height="7.77" x="259.867" y="168.14" style="fill:#545454"/><rect width="7.766" height="7.77" x="259.867" y="183.43" style="fill:#545454"/><rect width="7.766" height="7.77" x="259.867" y="198.72" style="fill:#545454"/><rect width="7.766" height="7.77" x="259.867" y="214" style="fill:#545454"/><rect width="7.766" height="7.77" x="259.867" y="229.29" style="fill:#545454"/><rect width="7.766" height="7.77" x="259.867" y="244.58" style="fill:#545454"/><rect width="7.766" height="7.77" x="259.867" y="259.86" style="fill:#545454"/><rect width="7.766" height="7.77" x="259.867" y="275.15" style="fill:#545454"/><rect width="7.766" height="7.77" x="259.867" y="290.44" style="fill:#545454"/><rect width="7.766" height="7.77" x="259.867" y="397.44" style="fill:#545454"/><rect width="7.766" height="7.77" x="259.867" y="412.73" style="fill:#545454"/><rect width="7.768" height="7.77" x="275.149" y="122.29" style="fill:#545454"/><rect width="7.768" height="7.76" x="275.149" y="137.58" style="fill:#545454"/><rect width="7.768" height="7.77" x="275.149" y="152.86" style="fill:#545454"/><rect width="7.768" height="7.77" x="275.149" y="168.14" style="fill:#545454"/><rect width="7.768" height="7.77" x="275.149" y="183.43" style="fill:#545454"/><rect width="7.768" height="7.77" x="275.149" y="198.72" style="fill:#545454"/><rect width="7.768" height="7.77" x="275.149" y="214" style="fill:#545454"/><rect width="7.768" height="7.77" x="275.149" y="229.29" style="fill:#545454"/><rect width="7.768" height="7.77" x="275.149" y="244.58" style="fill:#545454"/><rect width="7.768" height="7.77" x="275.149" y="259.86" style="fill:#545454"/><rect width="7.768" height="7.77" x="275.149" y="275.15" style="fill:#545454"/><rect width="7.768" height="7.77" x="275.149" y="290.44" style="fill:#545454"/><rect width="7.768" height="7.78" x="275.149" y="305.72" style="fill:#545454"/><rect width="7.768" height="7.77" x="275.149" y="321.01" style="fill:#545454"/><rect width="7.768" height="7.76" x="275.149" y="336.3" style="fill:#545454"/><rect width="7.768" height="7.77" x="275.149" y="351.58" style="fill:#545454"/><rect width="7.768" height="7.77" x="275.149" y="366.87" style="fill:#545454"/><rect width="7.768" height="7.77" x="275.149" y="382.15" style="fill:#545454"/><rect width="7.768" height="7.77" x="275.149" y="397.44" style="fill:#545454"/><rect width="7.768" height="7.77" x="275.149" y="412.73" style="fill:#545454"/><rect width="7.768" height="7.77" x="275.149" y="428.01" style="fill:#545454"/><rect width="7.768" height="7.77" x="275.149" y="443.3" style="fill:#545454"/><rect width="7.768" height="7.77" x="275.149" y="458.59" style="fill:#545454"/><rect width="7.768" height="7.77" x="275.149" y="473.87" style="fill:#545454"/><rect width="7.768" height="7.77" x="275.149" y="489.16" style="fill:#545454"/><rect width="7.768" height="7.76" x="275.149" y="504.45" style="fill:#545454"/><rect width="7.768" height="7.77" x="275.149" y="519.73" style="fill:#545454"/><rect width="7.769" height="7.77" x="290.439" y="61.14" style="fill:#545454"/><rect width="7.769" height="7.77" x="290.439" y="122.29" style="fill:#545454"/><rect width="7.769" height="7.76" x="290.439" y="137.58" style="fill:#545454"/><rect width="7.769" height="7.77" x="290.439" y="152.86" style="fill:#545454"/><rect width="7.769" height="7.77" x="290.439" y="168.14" style="fill:#545454"/><rect width="7.769" height="7.77" x="290.439" y="183.43" style="fill:#545454"/><rect width="7.769" height="7.77" x="290.439" y="198.72" style="fill:#545454"/><rect width="7.769" height="7.77" x="290.439" y="214" style="fill:#545454"/><rect width="7.769" height="7.77" x="290.439" y="229.29" style="fill:#545454"/><rect width="7.769" height="7.77" x="290.439" y="244.58" style="fill:#545454"/><rect width="7.769" height="7.77" x="290.439" y="259.86" style="fill:#545454"/><rect width="7.769" height="7.77" x="290.439" y="275.15" style="fill:#545454"/><rect width="7.769" height="7.77" x="290.439" y="290.44" style="fill:#545454"/><rect width="7.769" height="7.78" x="290.439" y="305.72" style="fill:#545454"/><rect width="7.769" height="7.77" x="290.439" y="321.01" style="fill:#545454"/><rect width="7.769" height="7.76" x="290.439" y="336.3" style="fill:#545454"/><rect width="7.769" height="7.77" x="290.439" y="351.58" style="fill:#545454"/><rect width="7.769" height="7.77" x="290.439" y="366.87" style="fill:#545454"/><rect width="7.769" height="7.77" x="290.439" y="382.15" style="fill:#545454"/><rect width="7.769" height="7.77" x="290.439" y="397.44" style="fill:#545454"/><rect width="7.769" height="7.77" x="290.439" y="412.73" style="fill:#545454"/><rect width="7.769" height="7.77" x="290.439" y="428.01" style="fill:#545454"/><rect width="7.769" height="7.77" x="290.439" y="443.3" style="fill:#545454"/><rect width="7.769" height="7.77" x="290.439" y="458.59" style="fill:#545454"/><rect width="7.769" height="7.77" x="290.439" y="473.87" style="fill:#545454"/><rect width="7.769" height="7.77" x="290.439" y="489.16" style="fill:#545454"/><rect width="7.769" height="7.76" x="290.439" y="504.45" style="fill:#545454"/><rect width="7.769" height="7.77" x="290.439" y="519.73" style="fill:#545454"/><rect width="7.769" height="7.77" x="290.439" y="535.02" style="fill:#545454"/><rect width="7.772" height="7.77" x="305.722" y="122.29" style="fill:#545454"/><rect width="7.772" height="7.76" x="305.722" y="137.58" style="fill:#545454"/><rect width="7.772" height="7.77" x="305.722" y="152.86" style="fill:#545454"/><rect width="7.772" height="7.77" x="305.722" y="168.14" style="fill:#545454"/><rect width="7.772" height="7.77" x="305.722" y="183.43" style="fill:#545454"/><rect width="7.772" height="7.77" x="305.722" y="198.72" style="fill:#545454"/><rect width="7.772" height="7.77" x="305.722" y="214" style="fill:#545454"/><rect width="7.772" height="7.77" x="305.722" y="229.29" style="fill:#545454"/><rect width="7.772" height="7.77" x="305.722" y="244.58" style="fill:#545454"/><rect width="7.772" height="7.77" x="305.722" y="259.86" style="fill:#545454"/><rect width="7.772" height="7.77" x="305.722" y="275.15" style="fill:#545454"/><rect width="7.772" height="7.77" x="305.722" y="290.44" style="fill:#545454"/><rect width="7.772" height="7.78" x="305.722" y="305.72" style="fill:#545454"/><rect width="7.772" height="7.77" x="305.722" y="321.01" style="fill:#545454"/><rect width="7.772" height="7.76" x="305.722" y="336.3" style="fill:#545454"/><rect width="7.772" height="7.77" x="305.722" y="351.58" style="fill:#545454"/><rect width="7.772" height="7.77" x="305.722" y="366.87" style="fill:#545454"/><rect width="7.772" height="7.77" x="305.722" y="382.15" style="fill:#545454"/><rect width="7.772" height="7.77" x="305.722" y="397.44" style="fill:#545454"/><rect width="7.772" height="7.77" x="305.722" y="412.73" style="fill:#545454"/><rect width="7.772" height="7.77" x="305.722" y="428.01" style="fill:#545454"/><rect width="7.772" height="7.77" x="305.722" y="443.3" style="fill:#545454"/><rect width="7.772" height="7.77" x="305.722" y="458.59" style="fill:#545454"/><rect width="7.772" height="7.77" x="305.722" y="473.87" style="fill:#545454"/><rect width="7.772" height="7.77" x="305.722" y="489.16" style="fill:#545454"/><rect width="7.772" height="7.77" x="305.722" y="535.02" style="fill:#545454"/><rect width="7.772" height="7.77" x="305.722" y="550.3" style="fill:#545454"/><rect width="7.768" height="7.76" x="321.009" y="137.58" style="fill:#545454"/><rect width="7.768" height="7.77" x="321.009" y="152.86" style="fill:#545454"/><rect width="7.768" height="7.77" x="321.009" y="168.14" style="fill:#545454"/><rect width="7.768" height="7.77" x="321.009" y="183.43" style="fill:#545454"/><rect width="7.768" height="7.77" x="321.009" y="198.72" style="fill:#545454"/><rect width="7.768" height="7.77" x="321.009" y="214" style="fill:#545454"/><rect width="7.768" height="7.77" x="321.009" y="229.29" style="fill:#545454"/><rect width="7.768" height="7.77" x="321.009" y="244.58" style="fill:#545454"/><rect width="7.768" height="7.77" x="321.009" y="259.86" style="fill:#545454"/><rect width="7.768" height="7.77" x="321.009" y="275.15" style="fill:#545454"/><rect width="7.768" height="7.77" x="321.009" y="290.44" style="fill:#545454"/><rect width="7.768" height="7.78" x="321.009" y="305.72" style="fill:#545454"/><rect width="7.768" height="7.77" x="321.009" y="321.01" style="fill:#545454"/><rect width="7.768" height="7.76" x="321.009" y="336.3" style="fill:#545454"/><rect width="7.768" height="7.77" x="321.009" y="351.58" style="fill:#545454"/><rect width="7.768" height="7.77" x="321.009" y="366.87" style="fill:#545454"/><rect width="7.768" height="7.77" x="321.009" y="382.15" style="fill:#545454"/><rect width="7.768" height="7.77" x="321.009" y="397.44" style="fill:#545454"/><rect width="7.768" height="7.77" x="321.009" y="412.73" style="fill:#545454"/><rect width="7.768" height="7.77" x="321.009" y="428.01" style="fill:#545454"/><rect width="7.768" height="7.77" x="321.009" y="535.02" style="fill:#545454"/><rect width="7.768" height="7.77" x="321.009" y="550.3" style="fill:#545454"/><rect width="7.772" height="7.77" x="336.295" y="152.86" style="fill:#545454"/><rect width="7.772" height="7.77" x="336.295" y="168.14" style="fill:#545454"/><rect width="7.772" height="7.77" x="336.295" y="183.43" style="fill:#545454"/><rect width="7.772" height="7.77" x="336.295" y="198.72" style="fill:#545454"/><rect width="7.772" height="7.77" x="336.295" y="214" style="fill:#545454"/><rect width="7.772" height="7.77" x="336.295" y="229.29" style="fill:#545454"/><rect width="7.772" height="7.77" x="336.295" y="244.58" style="fill:#545454"/><rect width="7.772" height="7.77" x="336.295" y="259.86" style="fill:#545454"/><rect width="7.772" height="7.77" x="336.295" y="275.15" style="fill:#545454"/><rect width="7.772" height="7.77" x="336.295" y="290.44" style="fill:#545454"/><rect width="7.772" height="7.78" x="336.295" y="305.72" style="fill:#545454"/><rect width="7.772" height="7.77" x="336.295" y="321.01" style="fill:#545454"/><rect width="7.772" height="7.76" x="336.295" y="336.3" style="fill:#545454"/><rect width="7.772" height="7.77" x="336.295" y="351.58" style="fill:#545454"/><rect width="7.772" height="7.77" x="336.295" y="366.87" style="fill:#545454"/><rect width="7.772" height="7.77" x="336.295" y="382.15" style="fill:#545454"/><rect width="7.772" height="7.77" x="336.295" y="397.44" style="fill:#545454"/><rect width="7.765" height="7.77" x="351.584" y="152.86" style="fill:#545454"/><rect width="7.765" height="7.77" x="351.584" y="168.14" style="fill:#545454"/><rect width="7.765" height="7.77" x="351.584" y="183.43" style="fill:#545454"/><rect width="7.765" height="7.77" x="351.584" y="198.72" style="fill:#545454"/><rect width="7.765" height="7.77" x="351.584" y="214" style="fill:#545454"/><rect width="7.765" height="7.77" x="351.584" y="229.29" style="fill:#545454"/><rect width="7.765" height="7.77" x="351.584" y="244.58" style="fill:#545454"/><rect width="7.765" height="7.77" x="351.584" y="259.86" style="fill:#545454"/><rect width="7.765" height="7.77" x="351.584" y="275.15" style="fill:#545454"/><rect width="7.765" height="7.77" x="351.584" y="290.44" style="fill:#545454"/><rect width="7.765" height="7.78" x="351.584" y="305.72" style="fill:#545454"/><rect width="7.765" height="7.77" x="351.584" y="321.01" style="fill:#545454"/><rect width="7.765" height="7.76" x="351.584" y="336.3" style="fill:#545454"/><rect width="7.765" height="7.77" x="351.584" y="351.58" style="fill:#545454"/><rect width="7.765" height="7.77" x="351.584" y="366.87" style="fill:#545454"/><rect width="7.765" height="7.77" x="351.584" y="382.15" style="fill:#545454"/><rect width="7.765" height="7.77" x="351.584" y="519.73" style="fill:#545454"/><rect width="7.766" height="7.77" x="366.87" y="152.86" style="fill:#545454"/><rect width="7.766" height="7.77" x="366.87" y="168.14" style="fill:#545454"/><rect width="7.766" height="7.77" x="366.87" y="183.43" style="fill:#545454"/><rect width="7.766" height="7.77" x="366.87" y="198.72" style="fill:#545454"/><rect width="7.766" height="7.77" x="366.87" y="214" style="fill:#545454"/><rect width="7.766" height="7.77" x="366.87" y="229.29" style="fill:#545454"/><rect width="7.766" height="7.77" x="366.87" y="244.58" style="fill:#545454"/><rect width="7.766" height="7.77" x="366.87" y="259.86" style="fill:#545454"/><rect width="7.766" height="7.77" x="366.87" y="275.15" style="fill:#545454"/><rect width="7.766" height="7.77" x="366.87" y="290.44" style="fill:#545454"/><rect width="7.766" height="7.78" x="366.87" y="305.72" style="fill:#545454"/><rect width="7.766" height="7.77" x="366.87" y="321.01" style="fill:#545454"/><rect width="7.766" height="7.76" x="366.87" y="336.3" style="fill:#545454"/><rect width="7.766" height="7.77" x="366.87" y="351.58" style="fill:#545454"/><rect width="7.766" height="7.77" x="366.87" y="366.87" style="fill:#545454"/><rect width="7.765" height="7.77" x="382.156" y="183.43" style="fill:#545454"/><rect width="7.765" height="7.77" x="382.156" y="198.72" style="fill:#545454"/><rect width="7.765" height="7.77" x="382.156" y="214" style="fill:#545454"/><rect width="7.765" height="7.77" x="382.156" y="229.29" style="fill:#545454"/><rect width="7.765" height="7.77" x="382.156" y="244.58" style="fill:#545454"/><rect width="7.765" height="7.77" x="382.156" y="259.86" style="fill:#545454"/><rect width="7.765" height="7.77" x="382.156" y="275.15" style="fill:#545454"/><rect width="7.765" height="7.77" x="382.156" y="290.44" style="fill:#545454"/><rect width="7.765" height="7.78" x="382.156" y="305.72" style="fill:#545454"/><rect width="7.765" height="7.77" x="382.156" y="321.01" style="fill:#545454"/><rect width="7.765" height="7.76" x="382.156" y="336.3" style="fill:#545454"/><rect width="7.765" height="7.77" x="382.156" y="351.58" style="fill:#545454"/><rect width="7.766" height="7.77" x="397.443" y="183.43" style="fill:#545454"/><rect width="7.766" height="7.77" x="397.443" y="198.72" style="fill:#545454"/><rect width="7.766" height="7.77" x="397.443" y="214" style="fill:#545454"/><rect width="7.766" height="7.77" x="397.443" y="229.29" style="fill:#545454"/><rect width="7.766" height="7.77" x="397.443" y="244.58" style="fill:#545454"/><rect width="7.766" height="7.77" x="397.443" y="259.86" style="fill:#545454"/><rect width="7.766" height="7.77" x="397.443" y="275.15" style="fill:#545454"/><rect width="7.766" height="7.77" x="397.443" y="290.44" style="fill:#545454"/><rect width="7.766" height="7.78" x="397.443" y="305.72" style="fill:#545454"/><rect width="7.766" height="7.77" x="397.443" y="321.01" style="fill:#545454"/><rect width="7.77" height="7.77" x="412.726" y="198.72" style="fill:#545454"/><rect width="7.77" height="7.77" x="412.726" y="214" style="fill:#545454"/><rect width="7.77" height="7.77" x="412.726" y="229.29" style="fill:#545454"/><rect width="7.77" height="7.77" x="412.726" y="244.58" style="fill:#545454"/><rect width="7.77" height="7.77" x="412.726" y="259.86" style="fill:#545454"/><rect width="7.77" height="7.77" x="412.726" y="275.15" style="fill:#545454"/><rect width="7.77" height="7.77" x="412.726" y="290.44" style="fill:#545454"/><rect width="7.77" height="7.78" x="412.726" y="305.72" style="fill:#545454"/><rect width="7.77" height="7.77" x="428.014" y="198.72" style="fill:#545454"/><rect width="7.77" height="7.77" x="428.014" y="214" style="fill:#545454"/><rect width="7.77" height="7.77" x="428.014" y="229.29" style="fill:#545454"/><rect width="7.77" height="7.77" x="428.014" y="244.58" style="fill:#545454"/><rect width="7.77" height="7.77" x="428.014" y="259.86" style="fill:#545454"/><rect width="7.77" height="7.77" x="428.014" y="275.15" style="fill:#545454"/><rect width="7.77" height="7.77" x="428.014" y="290.44" style="fill:#545454"/><rect width="7.77" height="7.78" x="428.014" y="305.72" style="fill:#545454"/><rect width="7.77" height="7.77" x="443.3" y="198.72" style="fill:#545454"/><rect width="7.77" height="7.77" x="443.3" y="214" style="fill:#545454"/><rect width="7.77" height="7.77" x="443.3" y="229.29" style="fill:#545454"/><rect width="7.77" height="7.77" x="443.3" y="244.58" style="fill:#545454"/><rect width="7.771" height="7.77" x="458.586" y="214" style="fill:#545454"/><rect width="7.771" height="7.77" x="458.586" y="229.29" style="fill:#545454"/></svg>