<?xml version="1.0" encoding="UTF-8" standalone="no"?><!DOCTYPE svg PUBLIC "-//W3C//DTD SVG 1.1//EN" "http://www.w3.org/Graphics/SVG/1.1/DTD/svg11.dtd"><svg width="100%" height="100%" viewBox="0 0 467 559" version="1.1" xmlns="http://www.w3.org/2000/svg" xmlns:xlink="http://www.w3.org/1999/xlink" xml:space="preserve" xmlns:serif="http://www.serif.com/" style="fill-rule:evenodd;clip-rule:evenodd;stroke-linejoin:round;stroke-miterlimit:2;"><rect x="0" y="15.281" width="7.766" height="7.769" style="fill:#545454;"/><rect x="15.287" y="0" width="7.765" height="7.77" style="fill:#545454;"/><rect x="15.287" y="15.281" width="7.765" height="7.769" style="fill:#545454;"/><rect x="30.572" y="0" width="7.769" height="7.77" style="fill:#545454;"/><rect x="30.572" y="15.281" width="7.769" height="7.769" style="fill:#545454;"/><rect x="30.572" y="30.57" width="7.769" height="7.77" style="fill:#545454;"/><rect x="45.859" y="0" width="7.767" height="7.77" style="fill:#545454;"/><rect x="45.859" y="15.281" width="7.767" height="7.769" style="fill:#545454;"/><rect x="45.859" y="30.57" width="7.767" height="7.77" style="fill:#545454;"/><rect x="45.859" y="45.86" width="7.767" height="7.76" style="fill:#545454;"/><rect x="61.142" y="0" width="7.773" height="7.77" style="fill:#545454;"/><rect x="61.142" y="15.281" width="7.773" height="7.769" style="fill:#545454;"/><rect x="76.431" y="0" width="7.767" height="7.77" style="fill:#545454;"/><rect x="76.431" y="15.281" width="7.767" height="7.769" style="fill:#545454;"/><rect x="76.431" y="30.57" width="7.767" height="7.77" style="fill:#545454;"/><rect x="76.431" y="45.86" width="7.767" height="7.76" style="fill:#545454;"/><rect x="76.431" y="61.14" width="7.767" height="7.77" style="fill:#545454;"/><rect x="76.431" y="76.43" width="7.767" height="7.77" style="fill:#545454;"/><rect x="91.718" y="0" width="7.769" height="7.77" style="fill:#545454;"/><rect x="91.718" y="15.281" width="7.769" height="7.769" style="fill:#545454;"/><rect x="91.718" y="30.57" width="7.769" height="7.77" style="fill:#545454;"/><rect x="91.718" y="45.86" width="7.769" height="7.76" style="fill:#545454;"/><rect x="91.718" y="61.14" width="7.769" height="7.77" style="fill:#545454;"/><rect x="91.718" y="76.43" width="7.769" height="7.77" style="fill:#545454;"/><rect x="107.003" y="0" width="7.77" height="7.77" style="fill:#545454;"/><rect x="107.003" y="15.281" width="7.77" height="7.769" style="fill:#545454;"/><rect x="107.003" y="30.57" width="7.77" height="7.77" style="fill:#545454;"/><rect x="107.003" y="45.86" width="7.77" height="7.76" style="fill:#545454;"/><rect x="107.003" y="61.14" width="7.77" height="7.77" style="fill:#545454;"/><rect x="107.003" y="76.43" width="7.77" height="7.77" style="fill:#545454;"/><rect x="107.003" y="91.72" width="7.77" height="7.76" style="fill:#545454;"/><rect x="122.289" y="0" width="7.769" height="7.77" style="fill:#545454;"/><rect x="122.289" y="15.281" width="7.769" height="7.769" style="fill:#545454;"/><rect x="122.289" y="76.43" width="7.769" height="7.77" style="fill:#545454;"/><rect x="137.574" y="0" width="7.77" height="7.77" style="fill:#545454;"/><rect x="137.574" y="76.43" width="7.77" height="7.77" style="fill:#545454;"/><rect x="137.574" y="168.14" width="7.77" height="7.77" style="fill:#545454;"/><rect x="137.574" y="183.43" width="7.77" height="7.77" style="fill:#545454;"/><rect x="152.861" y="61.14" width="7.769" height="7.77" style="fill:#545454;"/><rect x="152.861" y="76.43" width="7.769" height="7.77" style="fill:#545454;"/><rect x="152.861" y="91.72" width="7.769" height="7.76" style="fill:#545454;"/><rect x="168.146" y="45.86" width="7.771" height="7.76" style="fill:#545454;"/><rect x="168.146" y="91.72" width="7.771" height="7.76" style="fill:#545454;"/><rect x="183.433" y="0" width="7.77" height="7.77" style="fill:#545454;"/><rect x="183.433" y="45.86" width="7.77" height="7.76" style="fill:#545454;"/><rect x="183.433" y="91.72" width="7.77" height="7.76" style="fill:#545454;"/><rect x="183.433" y="107" width="7.77" height="7.77" style="fill:#545454;"/><rect x="183.433" y="122.29" width="7.77" height="7.77" style="fill:#545454;"/><rect x="198.718" y="0" width="7.769" height="7.77" style="fill:#545454;"/><rect x="198.718" y="15.281" width="7.769" height="7.769" style="fill:#545454;"/><rect x="198.718" y="45.86" width="7.769" height="7.76" style="fill:#545454;"/><rect x="198.718" y="122.29" width="7.769" height="7.77" style="fill:#545454;"/><rect x="214.009" y="15.281" width="7.766" height="7.769" style="fill:#545454;"/><rect x="214.009" y="45.86" width="7.766" height="7.76" style="fill:#545454;"/><rect x="214.009" y="61.14" width="7.766" height="7.77" style="fill:#545454;"/><rect x="214.009" y="122.29" width="7.766" height="7.77" style="fill:#545454;"/><rect x="214.009" y="168.14" width="7.766" height="7.77" style="fill:#545454;"/><rect x="214.009" y="183.43" width="7.766" height="7.77" style="fill:#545454;"/><rect x="214.009" y="198.72" width="7.766" height="7.77" style="fill:#545454;"/><rect x="214.009" y="214" width="7.766" height="7.77" style="fill:#545454;"/><rect x="214.009" y="229.29" width="7.766" height="7.77" style="fill:#545454;"/><rect x="229.294" y="45.86" width="7.767" height="7.76" style="fill:#545454;"/><rect x="229.294" y="61.14" width="7.767" height="7.77" style="fill:#545454;"/><rect x="229.294" y="122.29" width="7.767" height="7.77" style="fill:#545454;"/><rect x="229.294" y="137.58" width="7.767" height="7.76" style="fill:#545454;"/><rect x="229.294" y="152.86" width="7.767" height="7.77" style="fill:#545454;"/><rect x="229.294" y="168.14" width="7.767" height="7.77" style="fill:#545454;"/><rect x="229.294" y="183.43" width="7.767" height="7.77" style="fill:#545454;"/><rect x="229.294" y="198.72" width="7.767" height="7.77" style="fill:#545454;"/><rect x="229.294" y="214" width="7.767" height="7.77" style="fill:#545454;"/><rect x="229.294" y="229.29" width="7.767" height="7.77" style="fill:#545454;"/><rect x="229.294" y="244.58" width="7.767" height="7.77" style="fill:#545454;"/><rect x="229.294" y="259.86" width="7.767" height="7.77" style="fill:#545454;"/><rect x="244.576" y="30.57" width="7.771" height="7.77" style="fill:#545454;"/><rect x="244.576" y="107" width="7.771" height="7.77" style="fill:#545454;"/><rect x="244.576" y="122.29" width="7.771" height="7.77" style="fill:#545454;"/><rect x="244.576" y="137.58" width="7.771" height="7.76" style="fill:#545454;"/><rect x="244.576" y="152.86" width="7.771" height="7.77" style="fill:#545454;"/><rect x="244.576" y="168.14" width="7.771" height="7.77" style="fill:#545454;"/><rect x="244.576" y="183.43" width="7.771" height="7.77" style="fill:#545454;"/><rect x="244.576" y="198.72" width="7.771" height="7.77" style="fill:#545454;"/><rect x="244.576" y="214" width="7.771" height="7.77" style="fill:#545454;"/><rect x="244.576" y="229.29" width="7.771" height="7.77" style="fill:#545454;"/><rect x="244.576" y="244.58" width="7.771" height="7.77" style="fill:#545454;"/><rect x="244.576" y="259.86" width="7.771" height="7.77" style="fill:#545454;"/><rect x="244.576" y="275.15" width="7.771" height="7.77" style="fill:#545454;"/><rect x="259.867" y="61.14" width="7.766" height="7.77" style="fill:#545454;"/><rect x="259.867" y="76.43" width="7.766" height="7.77" style="fill:#545454;"/><rect x="259.867" y="122.29" width="7.766" height="7.77" style="fill:#545454;"/><rect x="259.867" y="137.58" width="7.766" height="7.76" style="fill:#545454;"/><rect x="259.867" y="152.86" width="7.766" height="7.77" style="fill:#545454;"/><rect x="259.867" y="168.14" width="7.766" height="7.77" style="fill:#545454;"/><rect x="259.867" y="183.43" width="7.766" height="7.77" style="fill:#545454;"/><rect x="259.867" y="198.72" width="7.766" height="7.77" style="fill:#545454;"/><rect x="259.867" y="214" width="7.766" height="7.77" style="fill:#545454;"/><rect x="259.867" y="229.29" width="7.766" height="7.77" style="fill:#545454;"/><rect x="259.867" y="244.58" width="7.766" height="7.77" style="fill:#545454;"/><rect x="259.867" y="259.86" width="7.766" height="7.77" style="fill:#545454;"/><rect x="259.867" y="275.15" width="7.766" height="7.77" style="fill:#545454;"/><rect x="259.867" y="290.44" width="7.766" height="7.77" style="fill:#545454;"/><rect x="259.867" y="397.44" width="7.766" height="7.77" style="fill:#545454;"/><rect x="259.867" y="412.73" width="7.766" height="7.77" style="fill:#545454;"/><rect x="275.149" y="122.29" width="7.768" height="7.77" style="fill:#545454;"/><rect x="275.149" y="137.58" width="7.768" height="7.76" style="fill:#545454;"/><rect x="275.149" y="152.86" width="7.768" height="7.77" style="fill:#545454;"/><rect x="275.149" y="168.14" width="7.768" height="7.77" style="fill:#545454;"/><rect x="275.149" y="183.43" width="7.768" height="7.77" style="fill:#545454;"/><rect x="275.149" y="198.72" width="7.768" height="7.77" style="fill:#545454;"/><rect x="275.149" y="214" width="7.768" height="7.77" style="fill:#545454;"/><rect x="275.149" y="229.29" width="7.768" height="7.77" style="fill:#545454;"/><rect x="275.149" y="244.58" width="7.768" height="7.77" style="fill:#545454;"/><rect x="275.149" y="259.86" width="7.768" height="7.77" style="fill:#545454;"/><rect x="275.149" y="275.15" width="7.768" height="7.77" style="fill:#545454;"/><rect x="275.149" y="290.44" width="7.768" height="7.77" style="fill:#545454;"/><rect x="275.149" y="305.72" width="7.768" height="7.78" style="fill:#545454;"/><rect x="275.149" y="321.01" width="7.768" height="7.77" style="fill:#545454;"/><rect x="275.149" y="336.3" width="7.768" height="7.76" style="fill:#545454;"/><rect x="275.149" y="351.58" width="7.768" height="7.77" style="fill:#545454;"/><rect x="275.149" y="366.87" width="7.768" height="7.77" style="fill:#545454;"/><rect x="275.149" y="382.15" width="7.768" height="7.77" style="fill:#545454;"/><rect x="275.149" y="397.44" width="7.768" height="7.77" style="fill:#545454;"/><rect x="275.149" y="412.73" width="7.768" height="7.77" style="fill:#545454;"/><rect x="275.149" y="428.01" width="7.768" height="7.77" style="fill:#545454;"/><rect x="275.149" y="443.3" width="7.768" height="7.77" style="fill:#545454;"/><rect x="275.149" y="458.59" width="7.768" height="7.77" style="fill:#545454;"/><rect x="275.149" y="473.87" width="7.768" height="7.77" style="fill:#545454;"/><rect x="275.149" y="489.16" width="7.768" height="7.77" style="fill:#545454;"/><rect x="275.149" y="504.45" width="7.768" height="7.76" style="fill:#545454;"/><rect x="275.149" y="519.73" width="7.768" height="7.77" style="fill:#545454;"/><rect x="290.439" y="61.14" width="7.769" height="7.77" style="fill:#545454;"/><rect x="290.439" y="122.29" width="7.769" height="7.77" style="fill:#545454;"/><rect x="290.439" y="137.58" width="7.769" height="7.76" style="fill:#545454;"/><rect x="290.439" y="152.86" width="7.769" height="7.77" style="fill:#545454;"/><rect x="290.439" y="168.14" width="7.769" height="7.77" style="fill:#545454;"/><rect x="290.439" y="183.43" width="7.769" height="7.77" style="fill:#545454;"/><rect x="290.439" y="198.72" width="7.769" height="7.77" style="fill:#545454;"/><rect x="290.439" y="214" width="7.769" height="7.77" style="fill:#545454;"/><rect x="290.439" y="229.29" width="7.769" height="7.77" style="fill:#545454;"/><rect x="290.439" y="244.58" width="7.769" height="7.77" style="fill:#545454;"/><rect x="290.439" y="259.86" width="7.769" height="7.77" style="fill:#545454;"/><rect x="290.439" y="275.15" width="7.769" height="7.77" style="fill:#545454;"/><rect x="290.439" y="290.44" width="7.769" height="7.77" style="fill:#545454;"/><rect x="290.439" y="305.72" width="7.769" height="7.78" style="fill:#545454;"/><rect x="290.439" y="321.01" width="7.769" height="7.77" style="fill:#545454;"/><rect x="290.439" y="336.3" width="7.769" height="7.76" style="fill:#545454;"/><rect x="290.439" y="351.58" width="7.769" height="7.77" style="fill:#545454;"/><rect x="290.439" y="366.87" width="7.769" height="7.77" style="fill:#545454;"/><rect x="290.439" y="382.15" width="7.769" height="7.77" style="fill:#545454;"/><rect x="290.439" y="397.44" width="7.769" height="7.77" style="fill:#545454;"/><rect x="290.439" y="412.73" width="7.769" height="7.77" style="fill:#545454;"/><rect x="290.439" y="428.01" width="7.769" height="7.77" style="fill:#545454;"/><rect x="290.439" y="443.3" width="7.769" height="7.77" style="fill:#545454;"/><rect x="290.439" y="458.59" width="7.769" height="7.77" style="fill:#545454;"/><rect x="290.439" y="473.87" width="7.769" height="7.77" style="fill:#545454;"/><rect x="290.439" y="489.16" width="7.769" height="7.77" style="fill:#545454;"/><rect x="290.439" y="504.45" width="7.769" height="7.76" style="fill:#545454;"/><rect x="290.439" y="519.73" width="7.769" height="7.77" style="fill:#545454;"/><rect x="290.439" y="535.02" width="7.769" height="7.77" style="fill:#545454;"/><rect x="305.722" y="122.29" width="7.772" height="7.77" style="fill:#545454;"/><rect x="305.722" y="137.58" width="7.772" height="7.76" style="fill:#545454;"/><rect x="305.722" y="152.86" width="7.772" height="7.77" style="fill:#545454;"/><rect x="305.722" y="168.14" width="7.772" height="7.77" style="fill:#545454;"/><rect x="305.722" y="183.43" width="7.772" height="7.77" style="fill:#545454;"/><rect x="305.722" y="198.72" width="7.772" height="7.77" style="fill:#545454;"/><rect x="305.722" y="214" width="7.772" height="7.77" style="fill:#545454;"/><rect x="305.722" y="229.29" width="7.772" height="7.77" style="fill:#545454;"/><rect x="305.722" y="244.58" width="7.772" height="7.77" style="fill:#545454;"/><rect x="305.722" y="259.86" width="7.772" height="7.77" style="fill:#545454;"/><rect x="305.722" y="275.15" width="7.772" height="7.77" style="fill:#545454;"/><rect x="305.722" y="290.44" width="7.772" height="7.77" style="fill:#545454;"/><rect x="305.722" y="305.72" width="7.772" height="7.78" style="fill:#545454;"/><rect x="305.722" y="321.01" width="7.772" height="7.77" style="fill:#545454;"/><rect x="305.722" y="336.3" width="7.772" height="7.76" style="fill:#545454;"/><rect x="305.722" y="351.58" width="7.772" height="7.77" style="fill:#545454;"/><rect x="305.722" y="366.87" width="7.772" height="7.77" style="fill:#545454;"/><rect x="305.722" y="382.15" width="7.772" height="7.77" style="fill:#545454;"/><rect x="305.722" y="397.44" width="7.772" height="7.77" style="fill:#545454;"/><rect x="305.722" y="412.73" width="7.772" height="7.77" style="fill:#545454;"/><rect x="305.722" y="428.01" width="7.772" height="7.77" style="fill:#545454;"/><rect x="305.722" y="443.3" width="7.772" height="7.77" style="fill:#545454;"/><rect x="305.722" y="458.59" width="7.772" height="7.77" style="fill:#545454;"/><rect x="305.722" y="473.87" width="7.772" height="7.77" style="fill:#545454;"/><rect x="305.722" y="489.16" width="7.772" height="7.77" style="fill:#545454;"/><rect x="305.722" y="535.02" width="7.772" height="7.77" style="fill:#545454;"/><rect x="305.722" y="550.3" width="7.772" height="7.77" style="fill:#545454;"/><rect x="321.009" y="137.58" width="7.768" height="7.76" style="fill:#545454;"/><rect x="321.009" y="152.86" width="7.768" height="7.77" style="fill:#545454;"/><rect x="321.009" y="168.14" width="7.768" height="7.77" style="fill:#545454;"/><rect x="321.009" y="183.43" width="7.768" height="7.77" style="fill:#545454;"/><rect x="321.009" y="198.72" width="7.768" height="7.77" style="fill:#545454;"/><rect x="321.009" y="214" width="7.768" height="7.77" style="fill:#545454;"/><rect x="321.009" y="229.29" width="7.768" height="7.77" style="fill:#545454;"/><rect x="321.009" y="244.58" width="7.768" height="7.77" style="fill:#545454;"/><rect x="321.009" y="259.86" width="7.768" height="7.77" style="fill:#545454;"/><rect x="321.009" y="275.15" width="7.768" height="7.77" style="fill:#545454;"/><rect x="321.009" y="290.44" width="7.768" height="7.77" style="fill:#545454;"/><rect x="321.009" y="305.72" width="7.768" height="7.78" style="fill:#545454;"/><rect x="321.009" y="321.01" width="7.768" height="7.77" style="fill:#545454;"/><rect x="321.009" y="336.3" width="7.768" height="7.76" style="fill:#545454;"/><rect x="321.009" y="351.58" width="7.768" height="7.77" style="fill:#545454;"/><rect x="321.009" y="366.87" width="7.768" height="7.77" style="fill:#545454;"/><rect x="321.009" y="382.15" width="7.768" height="7.77" style="fill:#545454;"/><rect x="321.009" y="397.44" width="7.768" height="7.77" style="fill:#545454;"/><rect x="321.009" y="412.73" width="7.768" height="7.77" style="fill:#545454;"/><rect x="321.009" y="428.01" width="7.768" height="7.77" style="fill:#545454;"/><rect x="321.009" y="535.02" width="7.768" height="7.77" style="fill:#545454;"/><rect x="321.009" y="550.3" width="7.768" height="7.77" style="fill:#545454;"/><rect x="336.295" y="152.86" width="7.772" height="7.77" style="fill:#545454;"/><rect x="336.295" y="168.14" width="7.772" height="7.77" style="fill:#545454;"/><rect x="336.295" y="183.43" width="7.772" height="7.77" style="fill:#545454;"/><rect x="336.295" y="198.72" width="7.772" height="7.77" style="fill:#545454;"/><rect x="336.295" y="214" width="7.772" height="7.77" style="fill:#545454;"/><rect x="336.295" y="229.29" width="7.772" height="7.77" style="fill:#545454;"/><rect x="336.295" y="244.58" width="7.772" height="7.77" style="fill:#545454;"/><rect x="336.295" y="259.86" width="7.772" height="7.77" style="fill:#545454;"/><rect x="336.295" y="275.15" width="7.772" height="7.77" style="fill:#545454;"/><rect x="336.295" y="290.44" width="7.772" height="7.77" style="fill:#545454;"/><rect x="336.295" y="305.72" width="7.772" height="7.78" style="fill:#545454;"/><rect x="336.295" y="321.01" width="7.772" height="7.77" style="fill:#545454;"/><rect x="336.295" y="336.3" width="7.772" height="7.76" style="fill:#545454;"/><rect x="336.295" y="351.58" width="7.772" height="7.77" style="fill:#545454;"/><rect x="336.295" y="366.87" width="7.772" height="7.77" style="fill:#545454;"/><rect x="336.295" y="382.15" width="7.772" height="7.77" style="fill:#545454;"/><rect x="336.295" y="397.44" width="7.772" height="7.77" style="fill:#545454;"/><rect x="351.584" y="152.86" width="7.765" height="7.77" style="fill:#545454;"/><rect x="351.584" y="168.14" width="7.765" height="7.77" style="fill:#545454;"/><rect x="351.584" y="183.43" width="7.765" height="7.77" style="fill:#545454;"/><rect x="351.584" y="198.72" width="7.765" height="7.77" style="fill:#545454;"/><rect x="351.584" y="214" width="7.765" height="7.77" style="fill:#545454;"/><rect x="351.584" y="229.29" width="7.765" height="7.77" style="fill:#545454;"/><rect x="351.584" y="244.58" width="7.765" height="7.77" style="fill:#545454;"/><rect x="351.584" y="259.86" width="7.765" height="7.77" style="fill:#545454;"/><rect x="351.584" y="275.15" width="7.765" height="7.77" style="fill:#545454;"/><rect x="351.584" y="290.44" width="7.765" height="7.77" style="fill:#545454;"/><rect x="351.584" y="305.72" width="7.765" height="7.78" style="fill:#545454;"/><rect x="351.584" y="321.01" width="7.765" height="7.77" style="fill:#545454;"/><rect x="351.584" y="336.3" width="7.765" height="7.76" style="fill:#545454;"/><rect x="351.584" y="351.58" width="7.765" height="7.77" style="fill:#545454;"/><rect x="351.584" y="366.87" width="7.765" height="7.77" style="fill:#545454;"/><rect x="351.584" y="382.15" width="7.765" height="7.77" style="fill:#545454;"/><rect x="351.584" y="519.73" width="7.765" height="7.77" style="fill:#545454;"/><rect x="366.87" y="152.86" width="7.766" height="7.77" style="fill:#545454;"/><rect x="366.87" y="168.14" width="7.766" height="7.77" style="fill:#545454;"/><rect x="366.87" y="183.43" width="7.766" height="7.77" style="fill:#545454;"/><rect x="366.87" y="198.72" width="7.766" height="7.77" style="fill:#545454;"/><rect x="366.87" y="214" width="7.766" height="7.77" style="fill:#545454;"/><rect x="366.87" y="229.29" width="7.766" height="7.77" style="fill:#545454;"/><rect x="366.87" y="244.58" width="7.766" height="7.77" style="fill:#545454;"/><rect x="366.87" y="259.86" width="7.766" height="7.77" style="fill:#545454;"/><rect x="366.87" y="275.15" width="7.766" height="7.77" style="fill:#545454;"/><rect x="366.87" y="290.44" width="7.766" height="7.77" style="fill:#545454;"/><rect x="366.87" y="305.72" width="7.766" height="7.78" style="fill:#545454;"/><rect x="366.87" y="321.01" width="7.766" height="7.77" style="fill:#545454;"/><rect x="366.87" y="336.3" width="7.766" height="7.76" style="fill:#545454;"/><rect x="366.87" y="351.58" width="7.766" height="7.77" style="fill:#545454;"/><rect x="366.87" y="366.87" width="7.766" height="7.77" style="fill:#545454;"/><rect x="382.156" y="183.43" width="7.765" height="7.77" style="fill:#545454;"/><rect x="382.156" y="198.72" width="7.765" height="7.77" style="fill:#545454;"/><rect x="382.156" y="214" width="7.765" height="7.77" style="fill:#545454;"/><rect x="382.156" y="229.29" width="7.765" height="7.77" style="fill:#545454;"/><rect x="382.156" y="244.58" width="7.765" height="7.77" style="fill:#545454;"/><rect x="382.156" y="259.86" width="7.765" height="7.77" style="fill:#545454;"/><rect x="382.156" y="275.15" width="7.765" height="7.77" style="fill:#545454;"/><rect x="382.156" y="290.44" width="7.765" height="7.77" style="fill:#545454;"/><rect x="382.156" y="305.72" width="7.765" height="7.78" style="fill:#545454;"/><rect x="382.156" y="321.01" width="7.765" height="7.77" style="fill:#545454;"/><rect x="382.156" y="336.3" width="7.765" height="7.76" style="fill:#545454;"/><rect x="382.156" y="351.58" width="7.765" height="7.77" style="fill:#545454;"/><rect x="397.443" y="183.43" width="7.766" height="7.77" style="fill:#545454;"/><rect x="397.443" y="198.72" width="7.766" height="7.77" style="fill:#545454;"/><rect x="397.443" y="214" width="7.766" height="7.77" style="fill:#545454;"/><rect x="397.443" y="229.29" width="7.766" height="7.77" style="fill:#545454;"/><rect x="397.443" y="244.58" width="7.766" height="7.77" style="fill:#545454;"/><rect x="397.443" y="259.86" width="7.766" height="7.77" style="fill:#545454;"/><rect x="397.443" y="275.15" width="7.766" height="7.77" style="fill:#545454;"/><rect x="397.443" y="290.44" width="7.766" height="7.77" style="fill:#545454;"/><rect x="397.443" y="305.72" width="7.766" height="7.78" style="fill:#545454;"/><rect x="397.443" y="321.01" width="7.766" height="7.77" style="fill:#545454;"/><rect x="412.726" y="198.72" width="7.77" height="7.77" style="fill:#545454;"/><rect x="412.726" y="214" width="7.77" height="7.77" style="fill:#545454;"/><rect x="412.726" y="229.29" width="7.77" height="7.77" style="fill:#545454;"/><rect x="412.726" y="244.58" width="7.77" height="7.77" style="fill:#545454;"/><rect x="412.726" y="259.86" width="7.77" height="7.77" style="fill:#545454;"/><rect x="412.726" y="275.15" width="7.77" height="7.77" style="fill:#545454;"/><rect x="412.726" y="290.44" width="7.77" height="7.77" style="fill:#545454;"/><rect x="412.726" y="305.72" width="7.77" height="7.78" style="fill:#545454;"/><rect x="428.014" y="198.72" width="7.77" height="7.77" style="fill:#545454;"/><rect x="428.014" y="214" width="7.77" height="7.77" style="fill:#545454;"/><rect x="428.014" y="229.29" width="7.77" height="7.77" style="fill:#545454;"/><rect x="428.014" y="244.58" width="7.77" height="7.77" style="fill:#545454;"/><rect x="428.014" y="259.86" width="7.77" height="7.77" style="fill:#545454;"/><rect x="428.014" y="275.15" width="7.77" height="7.77" style="fill:#545454;"/><rect x="428.014" y="290.44" width="7.77" height="7.77" style="fill:#545454;"/><rect x="428.014" y="305.72" width="7.77" height="7.78" style="fill:#545454;"/><rect x="443.3" y="198.72" width="7.77" height="7.77" style="fill:#545454;"/><rect x="443.3" y="214" width="7.77" height="7.77" style="fill:#545454;"/><rect x="443.3" y="229.29" width="7.77" height="7.77" style="fill:#545454;"/><rect x="443.3" y="244.58" width="7.77" height="7.77" style="fill:#545454;"/><rect x="458.586" y="214" width="7.771" height="7.77" style="fill:#545454;"/><rect x="458.586" y="229.29" width="7.771" height="7.77" style="fill:#545454;"/></svg>