<svg xmlns="http://www.w3.org/2000/svg" width="250" height="69" fill="none" viewBox="0 0 250 69"><path fill="#70DEEE" fill-rule="evenodd" d="M29.1567 68.6056C29.1567 68.6056 29.1564 0.000626326 29.1567 0C17.721 6.01492 0.380812 10.5552 0.474761 10.5129C-4.34764 53.0326 29.1567 68.6056 29.1567 68.6056Z" clip-rule="evenodd"/><path fill="#4DD5EA" fill-rule="evenodd" d="M29.1534 68.6056C29.1534 68.6056 29.1537 0.000626326 29.1534 0C40.5895 6.01492 57.9296 10.5552 57.8354 10.5129C62.6581 53.0326 29.1534 68.6056 29.1534 68.6056Z" clip-rule="evenodd"/><path fill="#2BBCDF" fill-rule="evenodd" d="M29.1577 64.5966C29.1577 64.5966 29.1571 2.81044 29.1577 2.80981C18.8584 8.2266 3.24156 12.3159 3.32643 12.2777C-1.01683 50.5716 29.1577 64.5966 29.1577 64.5966Z" clip-rule="evenodd"/><path fill="#1DA8D6" fill-rule="evenodd" d="M29.1534 64.5966C29.1534 64.5966 29.1537 2.81044 29.1534 2.80981C39.4527 8.2266 55.0695 12.3159 54.9847 12.2777C59.3276 50.5716 29.1534 64.5966 29.1534 64.5966Z" clip-rule="evenodd"/><path fill="#fff" fill-rule="evenodd" d="M7.7573 15.9676C7.82432 15.9632 20.6687 12.588 29.1551 8.12476C29.1548 8.12507 29.1551 59.3066 29.1551 59.3066C29.1551 59.3066 4.15968 47.6889 7.7573 15.9676ZM50.5529 15.9676C54.1505 47.6889 29.1551 59.3066 29.1551 59.3066C29.1551 59.3066 29.1554 8.12507 29.1551 8.12476C37.6415 12.588 50.4862 15.9632 50.5529 15.9676ZM7.7573 15.9676C7.75699 15.9676 7.75699 15.9676 7.7573 15.9676V15.9676ZM50.5529 15.9676C50.5532 15.9676 50.5532 15.9676 50.5529 15.9676V15.9676Z" clip-rule="evenodd"/><path fill="#1DA8D6" fill-rule="evenodd" d="M32.5271 36.0042V43.2828C32.5271 44.2041 31.779 44.9522 30.8576 44.9522H29.1534V19.8538H30.8576C31.779 19.8538 32.5271 20.6016 32.5271 21.5232V28.8015H39.5329C40.5265 28.8015 41.3336 29.6085 41.3336 30.6021V34.2035C41.3336 35.1975 40.5265 36.0042 39.5329 36.0042H32.5271Z" clip-rule="evenodd"/><path fill="#2BBCDF" fill-rule="evenodd" d="M25.7836 36.0042V43.2828C25.7836 44.2041 26.5314 44.9522 27.4527 44.9522H29.1573V19.8538H27.4527C26.5314 19.8538 25.7836 20.6016 25.7836 21.5232V28.8015H18.7775C17.7838 28.8015 16.9768 29.6085 16.9768 30.6021V34.2035C16.9768 35.1975 17.7838 36.0042 18.7775 36.0042H25.7836Z" clip-rule="evenodd"/><path fill="#1DA8D6" d="M74.0234 19.4263H68.9476V48.7537H74.0234V19.4263Z"/><path fill="#1DA8D6" d="M84.3566 26.9765L84.4975 29.494C86.109 27.5471 88.2238 26.5735 90.8425 26.5735C95.3812 26.5735 97.6907 29.1718 97.7715 34.3687V48.7705H92.8768V34.6506C92.8768 33.2677 92.5781 32.2436 91.9805 31.5788C91.383 30.9142 90.406 30.582 89.05 30.582C87.0758 30.582 85.6055 31.4748 84.6387 33.2608V48.7705H79.744V26.9765H84.3566Z"/><path fill="#1DA8D6" d="M107.359 26.9765L107.5 29.2526C109.031 27.4666 111.126 26.5735 113.784 26.5735C116.698 26.5735 118.693 27.688 119.767 29.9171C121.351 27.688 123.58 26.5735 126.454 26.5735C128.858 26.5735 130.647 27.2383 131.822 28.5677C132.997 29.8971 133.598 31.8575 133.625 34.4492V48.7705H128.73V34.5901C128.73 33.2072 128.428 32.1932 127.824 31.5487C127.219 30.9042 126.219 30.582 124.822 30.582C123.708 30.582 122.798 30.8807 122.093 31.4782C121.388 32.0758 120.895 32.858 120.613 33.8248L120.633 48.7705H115.738V34.4292C115.671 31.8644 114.362 30.582 111.81 30.582C109.85 30.582 108.46 31.3809 107.641 32.9789V48.7705H102.747V26.9765H107.359Z"/><path fill="#1DA8D6" d="M151.854 46.5988C150.417 48.2908 148.376 49.1366 145.73 49.1366C143.367 49.1366 141.578 48.4452 140.362 47.0619C139.147 45.679 138.54 43.6782 138.54 41.0595V26.9399H143.434V40.9991C143.434 43.7653 144.582 45.1485 146.878 45.1485C149.255 45.1485 150.86 44.2958 151.692 42.5903V26.9399H156.587V48.7339H151.974L151.854 46.5988Z"/><path fill="#1DA8D6" d="M180.616 23.5353H171.472V48.7537H166.416V23.5353H157.352V19.4263H180.616V23.5353Z"/><path fill="#1DA8D6" d="M192.594 31.4479C191.95 31.3405 191.285 31.2869 190.6 31.2869C188.358 31.2869 186.847 32.1462 186.068 33.8652V48.7705H181.173V26.9765H185.846L185.967 29.4136C187.149 27.5202 188.787 26.5735 190.882 26.5735C191.58 26.5735 192.158 26.6674 192.614 26.8556L192.594 31.4479Z"/><path fill="#1DA8D6" d="M208.889 46.5988C207.452 48.2908 205.411 49.1366 202.766 49.1366C200.402 49.1366 198.613 48.4452 197.398 47.0619C196.183 45.679 195.575 43.6782 195.575 41.0595V26.9399H200.47V40.9991C200.47 43.7653 201.618 45.1485 203.914 45.1485C206.291 45.1485 207.895 44.2958 208.728 42.5903V26.9399H213.622V48.7339H209.01L208.889 46.5988Z"/><path fill="#1DA8D6" d="M230.824 42.8486C230.824 41.9758 230.465 41.3109 229.747 40.8543C229.028 40.3978 227.836 39.995 226.171 39.6459C224.506 39.2967 223.116 38.8535 222.002 38.3165C219.558 37.1349 218.336 35.4228 218.336 33.1803C218.336 31.3004 219.128 29.7292 220.712 28.4669C222.297 27.2045 224.311 26.5735 226.755 26.5735C229.36 26.5735 231.465 27.218 233.07 28.5073C234.675 29.7962 235.477 31.4682 235.477 33.5226H230.582C230.582 32.5828 230.233 31.8005 229.535 31.176C228.837 30.5516 227.91 30.2394 226.755 30.2394C225.681 30.2394 224.805 30.4877 224.127 30.9847C223.449 31.4817 223.109 32.1462 223.109 32.9789C223.109 33.7308 223.425 34.3149 224.056 34.7311C224.687 35.1476 225.963 35.5672 227.883 35.99C229.804 36.4131 231.311 36.9166 232.405 37.5007C233.5 38.085 234.312 38.7865 234.842 39.6058C235.373 40.4247 235.638 41.4184 235.638 42.5868C235.638 44.5472 234.826 46.1352 233.201 47.3503C231.576 48.5657 229.448 49.1732 226.816 49.1732C225.03 49.1732 223.439 48.851 222.042 48.2065C220.645 47.562 219.558 46.6757 218.779 45.5477C218 44.4197 217.611 43.2043 217.611 41.9019H222.364C222.431 43.0568 222.868 43.9462 223.673 44.5707C224.479 45.1951 225.547 45.5073 226.876 45.5073C228.165 45.5073 229.146 45.2624 229.817 44.772C230.488 44.2819 230.824 43.6409 230.824 42.8486Z"/><path fill="#1DA8D6" d="M246.032 21.6865V26.984H249.879V30.6095H246.032V42.7756C246.032 43.6079 246.197 44.2089 246.525 44.5781C246.855 44.9473 247.442 45.1321 248.288 45.1321C248.852 45.1321 249.423 45.0651 250 44.9307V48.7175C248.885 49.0263 247.811 49.1807 246.777 49.1807C243.017 49.1807 241.137 47.106 241.137 42.9569V30.6095H237.552V26.984H241.137V21.6865H246.032Z"/></svg>