<svg width="250" height="70" viewBox="0 0 250 70" fill="none" xmlns="http://www.w3.org/2000/svg">
<path d="M160.767 61.1201C160.613 61.2231 160.458 61.3004 160.278 61.3776C160.098 61.4549 159.918 61.5064 159.711 61.5579C159.505 61.6094 159.299 61.6094 159.068 61.6094C158.656 61.6094 158.295 61.5322 157.986 61.4034C157.651 61.2746 157.368 61.0944 157.162 60.8368C156.93 60.6051 156.75 60.3218 156.621 60.0127C156.492 59.7037 156.441 59.3432 156.441 58.9569C156.441 58.5963 156.518 58.2615 156.647 57.9267C156.776 57.6177 156.956 57.3344 157.188 57.0769C157.419 56.8451 157.703 56.6391 158.012 56.5103C158.347 56.3816 158.681 56.3043 159.068 56.3043C159.299 56.3043 159.505 56.3301 159.686 56.3558C159.866 56.3816 160.046 56.4331 160.201 56.4846C160.355 56.5361 160.51 56.6133 160.639 56.6906C160.782 56.7761 160.919 56.8706 161.051 56.9739L160.484 57.6435L160.175 57.4117C160.072 57.3344 159.969 57.2829 159.866 57.2314C159.763 57.1799 159.634 57.1542 159.505 57.1284C159.377 57.1027 159.222 57.0769 159.068 57.0769C158.836 57.0769 158.604 57.1284 158.424 57.2314C158.218 57.3344 158.038 57.4632 157.909 57.6177C157.754 57.7722 157.651 57.9783 157.548 58.1843C157.445 58.3903 157.419 58.6478 157.419 58.8796C157.42 59.1255 157.464 59.3694 157.548 59.6007C157.626 59.8325 157.754 60.0127 157.909 60.193C158.063 60.3475 158.244 60.4763 158.45 60.5793C158.656 60.6823 158.887 60.7081 159.171 60.7081C159.402 60.7081 159.634 60.6823 159.866 60.6051C160.072 60.5278 160.252 60.4505 160.407 60.3218V59.3689H159.016V58.5963H161.205V60.7338C161.076 60.9141 160.922 61.0171 160.767 61.1201ZM163.265 57.0769V56.2271H164.218V57.0769H163.265ZM163.291 61.5064V57.6435H164.193V61.5064H163.291ZM168.983 57.6692H169.91L168.339 61.5579H167.54L165.944 57.6692H166.897L167.927 60.502L168.983 57.6692Z" fill="black"/>
<path d="M172.488 60.6347C172.694 60.8149 172.925 60.8922 173.209 60.8922C173.44 60.8922 173.621 60.8407 173.775 60.7634C173.947 60.6779 174.104 60.5649 174.239 60.4286L174.754 60.8922C174.574 61.0982 174.342 61.2785 174.084 61.4073C173.827 61.536 173.518 61.6133 173.157 61.6133C172.874 61.6133 172.616 61.5618 172.385 61.4588C172.153 61.3557 171.947 61.227 171.766 61.0467C171.586 60.8664 171.457 60.6604 171.354 60.4029C171.249 60.141 171.196 59.8608 171.2 59.5788C171.2 59.2955 171.251 59.038 171.329 58.8062C171.432 58.5744 171.56 58.3427 171.715 58.1624C171.895 57.9821 172.075 57.8276 172.307 57.7246C172.539 57.6216 172.797 57.5701 173.08 57.5701C173.389 57.5701 173.646 57.6216 173.878 57.7503C174.11 57.8533 174.29 58.0079 174.445 58.2139C174.599 58.3942 174.702 58.6259 174.78 58.8835C174.857 59.141 174.908 59.3985 174.908 59.6818V59.9393H172.075C172.153 60.2226 172.282 60.4544 172.488 60.6347ZM174.084 59.3213C174.058 59.1925 174.033 59.038 173.981 58.935C173.93 58.8062 173.878 58.7032 173.775 58.6259C173.692 58.543 173.596 58.4735 173.492 58.4199C173.389 58.3684 173.234 58.3427 173.106 58.3427C172.822 58.3427 172.616 58.4457 172.436 58.6259C172.256 58.8062 172.153 59.0637 172.101 59.3728H174.084V59.3213Z" fill="black"/>
<path d="M180.105 56.3885H181.007V60.6893H183.685V61.4876H180.105V56.3885ZM185.539 57.0581V56.2082H186.492V57.0581H185.539ZM185.565 61.4876V57.6247H186.466V61.4876H185.565ZM190.69 57.6504V58.3972H189.686V61.4876H188.784V58.3972H188.295V57.6504H188.784V57.3671C188.784 56.9293 188.887 56.6203 189.093 56.4143C189.299 56.2082 189.583 56.1052 189.969 56.1052C190.123 56.1052 190.252 56.1052 190.381 56.131L190.69 56.2082V56.9551L190.432 56.8778C190.355 56.8521 190.252 56.8521 190.175 56.8521C189.84 56.8521 189.66 57.0581 189.66 57.4444V57.6504H190.69ZM193.291 60.612C193.497 60.7923 193.729 60.8695 194.012 60.8695C194.244 60.8695 194.424 60.818 194.579 60.7408C194.75 60.6553 194.907 60.5422 195.042 60.406L195.557 60.8695C195.377 61.0756 195.145 61.2558 194.888 61.3846C194.63 61.5134 194.321 61.5906 193.961 61.5906C193.677 61.5906 193.42 61.5391 193.188 61.4361C192.956 61.3331 192.75 61.2043 192.57 61.024C192.39 60.8438 192.261 60.6378 192.158 60.3802C192.052 60.1183 192 59.8381 192.003 59.5561C192.003 59.2728 192.055 59.0153 192.132 58.7835C192.235 58.5518 192.364 58.32 192.518 58.1397C192.699 57.9594 192.879 57.8049 193.111 57.7019C193.342 57.5989 193.6 57.5474 193.883 57.5474C194.192 57.5474 194.45 57.5989 194.682 57.7277C194.913 57.8307 195.094 57.9852 195.248 58.1912C195.403 58.3715 195.506 58.6033 195.583 58.8608C195.66 59.1183 195.712 59.3759 195.712 59.6591V59.9167H192.879C192.982 60.2 193.111 60.4317 193.291 60.612ZM194.888 59.2986C194.862 59.1698 194.836 59.0153 194.785 58.9123C194.733 58.7835 194.682 58.6805 194.579 58.6033C194.495 58.5203 194.4 58.4508 194.295 58.3972C194.192 58.3457 194.038 58.32 193.909 58.32C193.626 58.32 193.42 58.423 193.239 58.6033C193.059 58.7835 192.956 59.0411 192.905 59.3501H194.888V59.2986ZM197.514 61.4876V60.4832H198.493V61.4876H197.514ZM204.622 57.9852C204.648 58.0625 204.725 58.114 204.803 58.1912C204.906 58.2427 205.009 58.32 205.189 58.3715L205.781 58.5518L206.502 58.7835C206.708 58.8608 206.889 58.9638 207.017 59.0926C207.146 59.2213 207.249 59.3501 207.326 59.5046C207.404 59.6591 207.429 59.8394 207.429 60.0712C207.429 60.303 207.378 60.5347 207.301 60.715C207.218 60.91 207.085 61.0792 206.914 61.2043C206.76 61.3331 206.554 61.4361 206.348 61.5134C206.116 61.5906 205.884 61.6164 205.601 61.6164C205.215 61.6164 204.828 61.5391 204.468 61.4103C204.107 61.2816 203.772 61.0756 203.463 60.7923L204.004 60.1484C204.262 60.3545 204.494 60.5347 204.751 60.6378C205.009 60.7408 205.292 60.818 205.601 60.818C205.884 60.818 206.09 60.7665 206.27 60.6378C206.425 60.509 206.528 60.3545 206.528 60.1742C206.528 60.0712 206.502 59.9939 206.476 59.9167C206.451 59.8394 206.373 59.7879 206.296 59.7106C206.219 59.6591 206.09 59.5819 205.936 59.5304L205.343 59.3501C205.06 59.2986 204.828 59.2213 204.622 59.1441C204.416 59.0668 204.236 58.9638 204.081 58.8608C203.927 58.732 203.824 58.6033 203.747 58.4487C203.669 58.2942 203.644 58.0882 203.644 57.8307C203.644 57.5989 203.695 57.3929 203.772 57.2126C203.85 57.0323 203.978 56.8778 204.133 56.749C204.287 56.6203 204.468 56.5173 204.674 56.44C204.88 56.3628 205.112 56.337 205.369 56.337C205.755 56.337 206.09 56.3885 206.373 56.4915C206.657 56.5945 206.966 56.7491 207.223 56.9808L206.734 57.6504C206.502 57.4701 206.27 57.3414 206.039 57.2641C205.807 57.1869 205.575 57.1353 205.343 57.1353C205.086 57.1353 204.88 57.1868 204.725 57.3156C204.571 57.4444 204.494 57.5731 204.494 57.7534C204.571 57.8307 204.571 57.9079 204.622 57.9852ZM211.73 61.5391V61.024C211.601 61.1786 211.421 61.3073 211.215 61.4103C211.009 61.5134 210.751 61.5649 210.468 61.5649C210.288 61.5649 210.108 61.5391 209.953 61.4876C209.799 61.4361 209.644 61.3588 209.515 61.2558C209.387 61.1528 209.284 61.024 209.206 60.8953C209.129 60.7408 209.103 60.5862 209.103 60.3802V60.3545C209.103 60.1665 209.147 59.9813 209.232 59.8137C209.309 59.6591 209.412 59.5304 209.567 59.4274C209.696 59.3244 209.876 59.2471 210.056 59.1956C210.236 59.1441 210.468 59.1183 210.674 59.1183C210.906 59.1183 211.112 59.1441 211.267 59.1698C211.421 59.1956 211.576 59.2471 211.73 59.2986V59.1956C211.73 58.9381 211.653 58.732 211.473 58.5775C211.318 58.4487 211.086 58.3715 210.777 58.3715C210.545 58.3715 210.365 58.3972 210.185 58.4487C210.005 58.5003 209.85 58.5518 209.67 58.629L209.438 57.9079C209.644 57.8049 209.876 57.7277 210.108 57.6762C210.339 57.6247 210.597 57.5989 210.906 57.5989C211.473 57.5989 211.91 57.7534 212.194 58.0367C212.477 58.32 212.606 58.732 212.606 59.2471V61.5391H211.73ZM211.756 59.8652C211.653 59.8137 211.498 59.7879 211.37 59.7621C211.215 59.7364 211.061 59.7106 210.88 59.7106C210.597 59.7106 210.391 59.7622 210.236 59.8652C210.082 59.9682 210.005 60.1227 210.005 60.3287V60.3545C210.005 60.5347 210.082 60.6893 210.211 60.7665C210.365 60.8695 210.52 60.921 210.751 60.921C210.906 60.921 211.035 60.8953 211.164 60.8695C211.292 60.818 211.395 60.7665 211.498 60.715C211.601 60.6378 211.653 60.5605 211.704 60.4575C211.756 60.3545 211.782 60.2515 211.782 60.1227V59.8652H211.756ZM217.164 57.6504H218.091L216.52 61.5391H215.722L214.125 57.6504H215.078L216.108 60.4832L217.164 57.6504Z" fill="black"/>
<path d="M220.671 60.6347C220.877 60.8149 221.109 60.8922 221.392 60.8922C221.624 60.8922 221.804 60.8407 221.959 60.7634C222.131 60.6779 222.287 60.5649 222.423 60.4286L222.938 60.8922C222.757 61.0982 222.526 61.2785 222.268 61.4073C222.01 61.536 221.701 61.6133 221.341 61.6133C221.058 61.6133 220.8 61.5618 220.568 61.4588C220.337 61.3557 220.131 61.227 219.95 61.0467C219.77 60.8664 219.641 60.6604 219.538 60.4029C219.433 60.141 219.38 59.8608 219.384 59.5788C219.384 59.2955 219.435 59.038 219.512 58.8062C219.615 58.5744 219.744 58.3427 219.899 58.1624C220.079 57.9821 220.259 57.8276 220.491 57.7246C220.723 57.6216 220.98 57.5701 221.264 57.5701C221.573 57.5701 221.83 57.6216 222.062 57.7503C222.294 57.8533 222.474 58.0079 222.629 58.2139C222.783 58.3942 222.886 58.6259 222.963 58.8835C223.041 59.141 223.092 59.3985 223.092 59.6818V59.9393H220.259C220.337 60.2226 220.465 60.4544 220.671 60.6347ZM222.268 59.3213C222.242 59.1925 222.217 59.038 222.165 58.935C222.113 58.8062 222.062 58.7032 221.959 58.6259C221.876 58.543 221.78 58.4735 221.676 58.4199C221.573 58.3684 221.418 58.3427 221.289 58.3427C221.006 58.3427 220.8 58.4457 220.62 58.6259C220.44 58.8062 220.337 59.0637 220.285 59.3728H222.268V59.3213Z" fill="black"/>
<path d="M228.289 56.4073H229.191V60.7081H231.869V61.5064H228.289V56.4073ZM233.697 57.0769V56.2271H234.65V57.0769H233.697ZM233.749 61.5064V57.6435H234.65V61.5064H233.749ZM239.44 57.6692H240.367L238.796 61.5579H237.998L236.401 57.6692H237.354L238.384 60.502L239.44 57.6692ZM242.943 60.6308C243.149 60.8111 243.38 60.8883 243.664 60.8883C243.896 60.8883 244.076 60.8368 244.23 60.7596C244.402 60.6741 244.559 60.561 244.694 60.4248L245.209 60.8883C245.029 61.0944 244.797 61.2746 244.539 61.4034C244.282 61.5322 243.973 61.6094 243.612 61.6094C243.329 61.6094 243.071 61.5579 242.84 61.4549C242.608 61.3519 242.402 61.2231 242.222 61.0429C242.041 60.8626 241.913 60.6566 241.81 60.399C241.704 60.1371 241.651 59.8569 241.655 59.5749C241.655 59.2917 241.707 59.0341 241.784 58.8023C241.887 58.5706 242.016 58.3388 242.17 58.1585C242.35 57.9783 242.531 57.8237 242.762 57.7207C242.994 57.6177 243.252 57.5662 243.535 57.5662C243.844 57.5662 244.102 57.6177 244.333 57.7465C244.565 57.8495 244.745 58.004 244.9 58.21C245.054 58.3903 245.157 58.6221 245.235 58.8796C245.312 59.1371 245.363 59.3947 245.363 59.6779V59.9355H242.531C242.608 60.2188 242.737 60.4505 242.943 60.6308ZM244.514 59.3174C244.488 59.1886 244.462 59.0341 244.411 58.9311C244.359 58.8023 244.308 58.6993 244.205 58.6221C244.121 58.5391 244.026 58.4696 243.921 58.4161C243.818 58.3645 243.664 58.3388 243.535 58.3388C243.252 58.3388 243.046 58.4418 242.865 58.6221C242.685 58.8023 242.582 59.0599 242.531 59.3689H244.514V59.3174ZM249.922 60.9141C249.844 61.0686 249.741 61.1974 249.613 61.3004C249.484 61.4034 249.329 61.4807 249.149 61.5322C248.969 61.5837 248.789 61.6094 248.583 61.6094C248.292 61.6081 248.005 61.5559 247.733 61.4549C247.449 61.3519 247.192 61.2231 246.934 61.0171L247.321 60.4248C247.527 60.5793 247.733 60.7081 247.964 60.7853C248.171 60.8626 248.377 60.9141 248.583 60.9141C248.763 60.9141 248.917 60.8883 249.02 60.8111C249.123 60.7338 249.175 60.6308 249.175 60.502V60.4763C249.175 60.399 249.149 60.3475 249.098 60.296C249.046 60.2445 248.995 60.193 248.917 60.1415C248.84 60.09 248.737 60.0642 248.634 60.0385C248.531 60.0127 248.428 59.9612 248.299 59.9355L247.861 59.781C247.722 59.7333 247.592 59.6638 247.475 59.5749C247.372 59.4977 247.269 59.3947 247.192 59.2659C247.115 59.1371 247.089 58.9826 247.089 58.8023V58.7766C247.089 58.5963 247.115 58.4418 247.192 58.2873C247.269 58.1328 247.372 58.0298 247.475 57.9267C247.604 57.8237 247.758 57.7465 247.913 57.695C248.093 57.6435 248.248 57.6177 248.454 57.6177C248.686 57.6177 248.943 57.6692 249.201 57.7465C249.458 57.8237 249.664 57.9267 249.87 58.0555L249.51 58.6736C249.329 58.5706 249.149 58.4676 248.943 58.4161C248.763 58.3388 248.583 58.313 248.428 58.313C248.248 58.313 248.119 58.3388 248.042 58.4161C247.939 58.4933 247.887 58.5706 247.887 58.6993V58.7251C247.887 58.8023 247.913 58.8539 247.964 58.9054C248.016 58.9569 248.068 59.0084 248.171 59.0341C248.248 59.0856 248.351 59.1114 248.454 59.1629C248.557 59.1886 248.66 59.2401 248.789 59.2659L249.201 59.4204C249.329 59.4719 249.458 59.5492 249.587 59.6264C249.69 59.7037 249.793 59.8067 249.87 59.9355C249.947 60.0642 249.973 60.193 249.973 60.3733V60.399C250.025 60.5793 249.999 60.7596 249.922 60.9141Z" fill="black"/>
<path d="M68.7794 32.5715C68.7794 32.5715 70.4791 43.568 69.861 43.259C69.243 42.95 68.1099 47.4052 67.9553 47.7143C67.8008 48.0233 61.3368 54.6933 60.7188 55.4144C60.1007 56.1355 47.6105 61.4406 46.6319 61.8526C45.6533 62.2647 28.373 56.4445 28.373 56.4445L30.9998 44.8557C30.9998 44.8557 39.9104 28.9146 39.1378 28.9146C38.3652 28.9146 41.8933 22.6566 42.7174 22.6566C43.5415 22.6309 47.5332 21.575 46.6319 21.1115C45.7305 20.6479 49.0012 18.8452 49.0012 18.8452L54.332 18.7422L59.6371 22.3991L68.7794 32.5715Z" fill="#590111"/>
<path d="M68.7509 43.4791C68.5449 42.9125 68.2873 42.3459 67.9783 41.7794C66.3301 38.7148 63.2655 35.6759 59.4283 33.6414L59.2223 33.5384C54.6125 31.1434 48.8954 30.2421 43.1782 32.4826C42.9207 32.5856 42.6374 32.6886 42.3799 32.8173L42.5086 32.8946H42.5344C40.2681 34.3625 38.9805 39.1783 38.7744 39.3071L47.3244 44.7925L61.3598 47.8313L63.8063 46.6209C64.4759 45.1015 69.4462 45.3848 68.7509 43.4791Z" fill="url(#paint0_radial)"/>
<path d="M70.0402 42.7207C70.0402 38.935 61.0267 46.7382 49.9014 43.4161C43.9267 41.6391 37.4885 36.5143 35.454 33.0891C16.165 48.3864 12.8172 60.9023 12.6111 61.6492C12.4051 62.4217 12.5339 63.2458 12.9717 63.8897C13.2292 64.3017 13.5898 64.6107 14.0276 64.8425C14.3108 64.9713 14.5941 65.0743 14.9032 65.1258C31.6426 67.5466 44.7766 66.5165 53.9446 62.0097C62.0311 58.0437 66.9241 48.6954 68.9071 44.6007C68.9329 44.5492 71.3279 40.609 70.0402 42.7207Z" fill="url(#paint1_linear)"/>
<path d="M49.0005 18.8498L58.6064 25.6486C65.7142 29.3313 68.7788 39.3234 65.0961 46.9206C61.3619 54.6207 52.4256 67.832 15.2899 62.4496C15.2899 62.4496 20.2087 44.6285 39.3174 29.6403C47.0433 23.5626 53.7648 23.1506 58.6064 25.6486L49.0005 18.8498ZM61.1559 20.7298C57.5247 18.8498 53.3785 18.2575 49.1293 18.9786C44.7513 19.7254 40.296 21.8372 35.918 25.2881C15.5989 41.2034 10.1908 60.1833 9.95902 60.9817C9.54697 62.5011 10.3968 63.4282 11.2724 64.7674C11.8132 65.5657 11.5042 66.055 12.3283 66.4928C12.8691 66.7761 13.8735 67.8577 14.4915 67.935C23.6081 69.2484 31.7718 69.5832 38.7508 68.8878C45.0345 68.2698 50.5457 66.8018 55.1555 64.5613C64.0145 60.2348 67.9032 53.7966 70.0664 49.3413C72.4357 44.474 72.822 38.6024 71.1738 33.22C69.5256 27.7089 65.8429 23.1506 61.1559 20.7298Z" fill="#BA0D0D"/>
<path d="M14.2371 64.9419C13.7478 64.6843 13.3358 64.2723 13.0525 63.7572C5.19784 48.769 1.82421 36.047 3.00884 25.9004C4.06472 16.9641 8.41696 11.6332 11.6361 8.38836C17.4047 2.56819 26.8303 1.04877 34.0412 4.78294C37.1315 6.37963 46.7889 12.9209 41.0975 29.7891C33.114 53.4045 17.7653 64.298 17.0957 64.7616C16.4485 65.2269 15.6255 65.3781 14.8552 65.1736C14.6492 65.1221 14.4432 65.0449 14.2371 64.9419Z" fill="#F20833"/>
<path d="M32.7758 7.25322C38.6732 10.2921 42.3301 17.4514 38.4672 28.9114C30.6898 51.9346 15.5213 62.4933 15.5213 62.4933C-1.93922 29.2205 7.58937 16.3955 13.5898 10.3436C18.6116 5.27024 26.8268 4.16286 32.7758 7.25322ZM35.2996 2.3344C27.0329 -1.94059 16.2424 -0.215142 9.64961 6.45487C6.17296 9.98303 1.38291 15.8032 0.249778 25.5893C-0.34254 30.6884 0.121013 36.3541 1.61468 42.4833C3.28863 49.282 6.30172 56.8792 10.5767 65.0428C11.1175 66.0472 11.9416 66.8713 12.946 67.3864C13.3361 67.5937 13.7518 67.7495 14.1821 67.8499C15.7273 68.2362 17.3497 67.9272 18.6631 67.0258C19.3327 66.5623 35.4283 55.128 43.695 30.6627C45.884 24.1472 46.1673 18.2755 44.5191 13.2021C42.9739 8.4121 39.7806 4.65217 35.2996 2.3344Z" fill="#BA0D0D"/>
<path d="M81.9139 48.3604V22.4529H87.6053V43.2098H100.508V48.3604H81.9139ZM105.298 26.3416V21.3455H111.221V26.3416H105.298ZM105.452 48.3347V28.5049H111.066V48.3347H105.452ZM127.188 25.9553C126.801 25.8781 126.338 25.8266 125.848 25.8266C124.484 25.8266 123.814 26.5476 123.814 27.9641V28.7366H128.372V33.3207H123.891V48.3347H118.277V33.3207H115.959V28.6851H118.277V27.4232C118.277 25.2342 118.792 23.6118 119.848 22.6074C120.904 21.5773 122.423 21.0623 124.406 21.0623C125.282 21.0623 126.054 21.1138 126.673 21.2168C127.291 21.3198 127.883 21.4485 128.398 21.6288V26.2901C127.986 26.1356 127.574 26.0326 127.188 25.9553ZM150.855 39.6817C150.855 39.8877 150.829 40.1195 150.803 40.377H136.999C137.283 41.6646 137.824 42.6175 138.673 43.2871C139.523 43.9309 140.579 44.2657 141.841 44.2657C142.768 44.2657 143.618 44.1112 144.365 43.7764C145.112 43.4673 145.859 42.9265 146.657 42.2312L149.876 45.0898C148.949 46.2487 147.816 47.15 146.477 47.8196C145.137 48.4634 143.592 48.7982 141.79 48.7982C140.322 48.7982 138.931 48.5407 137.669 48.0514C136.407 47.5621 135.3 46.8667 134.373 45.9396C133.446 45.0383 132.725 43.9566 132.209 42.6948C131.694 41.4586 131.437 40.068 131.437 38.5228V38.4713C131.437 37.0549 131.669 35.7415 132.158 34.4796C132.647 33.2177 133.317 32.136 134.167 31.1832C135.042 30.2561 136.047 29.5092 137.257 28.9684C138.442 28.4276 139.781 28.1443 141.223 28.1443C142.871 28.1443 144.313 28.4276 145.524 29.0199C146.734 29.6122 147.738 30.4106 148.537 31.415C149.335 32.4193 149.927 33.5524 150.314 34.8659C150.7 36.1535 150.88 37.5184 150.88 38.9091V38.9863C150.88 39.2439 150.88 39.4756 150.855 39.6817ZM144.082 33.81C143.36 33.0374 142.408 32.6511 141.223 32.6511C140.038 32.6511 139.085 33.0374 138.364 33.81C137.643 34.5826 137.154 35.5869 136.948 36.8746H145.421C145.24 35.6127 144.803 34.5826 144.082 33.81Z" fill="black"/>
<path d="M176.088 42.8101C175.572 44.072 174.929 45.1536 174.079 46.0292C173.255 46.9048 172.302 47.5744 171.22 48.0122C170.139 48.45 169.005 48.6818 167.821 48.6818C166.327 48.6818 165.091 48.3985 164.112 47.8062C163.134 47.2139 162.31 46.5443 161.666 45.7459V48.3212H156.052V21.3064H161.666V31.2985C162.361 30.3714 163.185 29.5988 164.164 29.0065C165.142 28.4142 166.353 28.1052 167.847 28.1052C169.005 28.1052 170.139 28.337 171.22 28.7748C172.302 29.2126 173.255 29.8821 174.105 30.7577C174.954 31.6333 175.624 32.715 176.113 33.9769C176.628 35.2387 176.86 36.7067 176.86 38.3549V38.4321C176.834 40.0803 176.577 41.5225 176.088 42.8101ZM171.22 38.3549C171.22 37.5308 171.091 36.7839 170.834 36.1143C170.576 35.4448 170.216 34.8525 169.778 34.3631C169.34 33.8738 168.825 33.5133 168.233 33.2558C167.666 32.9982 167.022 32.8695 166.353 32.8695C165.683 32.8695 165.065 32.9982 164.473 33.2558C163.906 33.5133 163.391 33.8996 162.953 34.3631C162.516 34.8267 162.181 35.419 161.923 36.1143C161.666 36.7839 161.537 37.5565 161.537 38.3549V38.4321C161.537 39.2562 161.666 40.003 161.923 40.6726C162.181 41.3422 162.516 41.9345 162.953 42.4238C163.391 42.9131 163.881 43.2737 164.473 43.5312C165.039 43.7887 165.683 43.9175 166.353 43.9175C167.022 43.9175 167.641 43.7887 168.233 43.5312C168.825 43.2737 169.314 42.8874 169.778 42.4238C170.233 41.918 170.591 41.3332 170.834 40.6984C171.091 40.0288 171.22 39.282 171.22 38.4321V38.3549ZM193.548 48.347V46.158C192.853 46.9306 192.029 47.5229 191.076 47.9865C190.123 48.45 188.938 48.6818 187.573 48.6818C186.646 48.6818 185.745 48.553 184.921 48.2955C184.097 48.038 183.376 47.6517 182.758 47.1366C182.139 46.6215 181.65 45.9777 181.29 45.2309C180.929 44.4841 180.749 43.6085 180.749 42.6298V42.5526C180.749 41.471 180.955 40.5439 181.341 39.7455C181.727 38.9472 182.294 38.3033 182.989 37.7883C183.685 37.2732 184.534 36.8869 185.513 36.6294C186.492 36.3719 187.573 36.2431 188.758 36.2431C189.762 36.2431 190.638 36.3204 191.411 36.4749C192.157 36.6294 192.904 36.8097 193.6 37.0672V36.7324C193.6 35.5478 193.239 34.6464 192.518 34.0284C191.797 33.4103 190.741 33.1012 189.35 33.1012C188.269 33.1012 187.316 33.2043 186.492 33.3845C185.604 33.5785 184.734 33.8455 183.891 34.1829L182.474 29.8821C183.556 29.4186 184.689 29.0323 185.874 28.7232C187.058 28.44 188.475 28.2854 190.174 28.2854C193.265 28.2854 195.505 29.0323 196.896 30.5517C198.312 32.0454 199.008 34.1571 199.008 36.8354V48.347H193.548ZM193.651 40.3121C193.162 40.0803 192.621 39.9 192.003 39.7713C191.411 39.6425 190.741 39.5652 190.071 39.5652C188.861 39.5652 187.908 39.797 187.213 40.2606C186.517 40.7241 186.183 41.4195 186.183 42.2951V42.3723C186.183 43.1449 186.466 43.7372 187.033 44.1493C187.599 44.5613 188.346 44.7673 189.247 44.7673C190.586 44.7673 191.642 44.4583 192.441 43.8145C193.239 43.1707 193.651 42.3466 193.651 41.2907V40.3121ZM217.318 48.2955V37.2732C217.318 35.9341 217.009 34.9555 216.442 34.2601C215.85 33.5906 215 33.2558 213.919 33.2558C212.837 33.2558 211.987 33.5906 211.343 34.2601C210.699 34.9297 210.39 35.9341 210.39 37.2732V48.2955H204.776V28.4657H210.39V31.2985C210.699 30.8865 211.06 30.4744 211.446 30.0882C211.833 29.7019 212.245 29.3671 212.734 29.058C213.198 28.749 213.713 28.5172 214.279 28.3627C214.846 28.1824 215.49 28.1052 216.211 28.1052C218.348 28.1052 220.022 28.749 221.181 30.0624C222.34 31.3758 222.932 33.1785 222.932 35.4705V48.2955H217.318ZM241.551 48.2955L236.375 40.2091L234.418 42.2693V48.2955H228.804V21.3064H234.418V35.7023L241.011 28.4915H247.732L240.187 36.2946L247.99 48.3212H241.551V48.2955Z" fill="#F20833"/>
<defs>
<radialGradient id="paint0_radial" cx="0" cy="0" r="1" gradientUnits="userSpaceOnUse" gradientTransform="translate(53.7992 37.9857) rotate(13.7445) scale(11.6547 5.14102)">
<stop stop-color="#F00833"/>
<stop offset="0.09" stop-color="#F00833"/>
<stop offset="0.5" stop-color="#F20833"/>
<stop offset="0.61" stop-color="#E40730"/>
<stop offset="0.86" stop-color="#C90529"/>
<stop offset="1" stop-color="#BF0427"/>
</radialGradient>
<linearGradient id="paint1_linear" x1="19.7707" y1="43.4011" x2="61.2633" y2="62.0117" gradientUnits="userSpaceOnUse">
<stop stop-color="#F00833"/>
<stop offset="0.09" stop-color="#F00833"/>
<stop offset="0.5" stop-color="#F20833"/>
<stop offset="0.57" stop-color="#E40730"/>
<stop offset="0.73" stop-color="#C90529"/>
<stop offset="0.83" stop-color="#BF0427"/>
<stop offset="0.87" stop-color="#C20428"/>
<stop offset="0.89" stop-color="#CA052A"/>
<stop offset="0.91" stop-color="#D9062D"/>
<stop offset="0.93" stop-color="#F00833"/>
<stop offset="1" stop-color="#BF0427"/>
</linearGradient>
</defs>
</svg>
