<svg width="250" height="51" viewBox="0 0 250 51" fill="none" xmlns="http://www.w3.org/2000/svg">
<g clip-path="url(#clip0)">
<path fill-rule="evenodd" clip-rule="evenodd" d="M49.5144 30.6229C49.9128 34.6721 52.8975 35.5287 54.4236 35.5287C56.9766 35.5287 59.3309 33.5857 59.3309 30.886C59.3309 27.462 56.3795 26.7044 53.5279 25.782C51.5378 25.1893 47.2599 23.9381 47.2599 19.3286C47.1943 15.0147 50.8085 12.6113 54.5558 12.6113C57.607 12.6113 61.1214 14.2904 61.5198 18.9008H58.8004C58.5018 17.3198 57.7059 14.9165 54.4559 14.9165C52.0027 14.9165 49.9793 16.5623 49.9793 19.098C49.9461 22.0617 52.3669 22.7859 56.0809 24.0371C58.4029 24.9253 62.0504 26.2099 62.0504 30.6887C62.0504 34.6721 59.0333 37.8339 54.4559 37.8339C50.3444 37.8339 46.929 35.2657 46.7626 30.6229H49.5144ZM68.3453 36.9331V12.6113H72.2284L81.402 33.0218L90.5405 12.6113H94.4245V36.9331H91.813L91.8795 15.3065L82.2716 36.9331H80.4973L70.8561 15.3065L70.9236 36.9331H68.3453ZM110.113 15.6678L105.358 27.862H114.901L110.113 15.6678ZM101.8 36.9331H98.9209L108.916 12.6113H111.505L121.403 36.9331H118.492L115.71 30.096H104.549L101.8 36.9331ZM126.799 12.6113H133.022C136.762 12.6113 138.503 13.0707 139.728 13.8598C141.663 15.0435 142.984 17.6405 142.984 20.4006C143.016 22.0446 142.566 23.7858 141.566 25.1668C140.147 27.1395 138.438 27.5989 136.246 27.8286L142.178 36.9331H139.276L132.538 26.3171H133.311C134.988 26.3171 137.309 26.2847 138.599 25.0686C139.857 23.8191 140.405 22.34 140.405 20.5979C140.405 18.7909 139.534 16.8838 138.051 15.8975C136.858 15.1093 135.376 15.0102 133.215 15.0102H129.475V36.9331H126.799V12.6113ZM153.327 15.0102H147.482V12.6113H161.871V15.0102H155.993V36.9331H153.327V15.0102ZM185.973 19.353C185.205 18.3008 184.27 17.4126 183.201 16.7226C181.598 15.6371 179.662 15.0111 177.458 15.0111C172.048 15.0111 167.34 19.0899 167.34 25.1731C167.34 31.3553 172.081 35.4332 177.491 35.4332C180.095 35.4332 182.399 34.545 184.103 33.2299C185.839 31.8823 187.041 30.041 187.442 28.1331H175.153V25.8973H190.647C190.614 27.3116 190.281 29.0862 189.546 30.5995C187.408 35.1702 182.467 37.8339 177.491 37.8339C170.279 37.8339 164.568 32.375 164.568 25.1731C164.568 17.8729 170.379 12.6113 177.524 12.6113C182.533 12.6113 187.174 15.3732 189.112 19.353H185.973ZM204.538 15.6678L199.784 27.862H209.326L204.539 15.6678H204.538ZM196.225 36.9331H193.345L203.341 12.6113H205.929L215.827 36.9331H212.916L210.134 30.096H198.974L196.225 36.9331ZM222.572 15.0102H216.727V12.6113H231.115V15.0102H225.237V36.9331H222.572V15.0102Z" fill="#3C489D"/>
<mask id="mask0" mask-type="alpha" maskUnits="userSpaceOnUse" x="236" y="12" width="14" height="26">
<path d="M236.756 12.8789H249.909V37.5385H236.756V12.8789Z" fill="white"/>
</mask>
<g mask="url(#mask0)">
<path fill-rule="evenodd" clip-rule="evenodd" d="M236.756 12.8789H249.909V15.312H239.388V23.8759H249.845V26.309H239.388V35.1063H249.909V37.5385H236.756V12.8789Z" fill="#3C489D"/>
</g>
<path fill-rule="evenodd" clip-rule="evenodd" d="M36.5989 5.40479L36.8705 9.73135L15.8399 22.5201L0.899277 22.4498L29.6061 5.42821L36.5989 5.40479Z" fill="#5A83C2"/>
<path fill-rule="evenodd" clip-rule="evenodd" d="M17.6637 43.6494V43.7278H17.4083C17.4892 43.7179 17.5755 43.6881 17.6637 43.6494Z" fill="#FEFEFE"/>
<path fill-rule="evenodd" clip-rule="evenodd" d="M17.6322 43.6846C17.5647 43.6945 17.5009 43.6981 17.4406 43.6846H17.6322Z" fill="#FEFEFE"/>
<path fill-rule="evenodd" clip-rule="evenodd" d="M14.3885 23.4209V41.428L4.27158 41.4352L0 41.437V23.4209H14.3885Z" fill="#526CB3"/>
<path fill-rule="evenodd" clip-rule="evenodd" d="M20.7176 45.9411H18.8507C17.8804 45.9411 17.0863 45.1628 17.0863 44.2116V44.0675C17.0863 43.1162 17.8804 42.3379 18.8507 42.3379H20.7176C21.6889 42.3379 22.482 43.1162 22.482 44.0675V44.2116C22.482 45.1628 21.688 45.9411 20.7176 45.9411ZM16.1871 23.7894L16.2077 41.4371L35.0719 29.2834V12.6113L16.1871 23.7894Z" fill="#3C489D"/>
<mask id="mask1" mask-type="alpha" maskUnits="userSpaceOnUse" x="2" y="0" width="36" height="51">
<path d="M2.85251 0.0900879H37.6682V50.4451H2.85251V0.0900879Z" fill="white"/>
</mask>
<g mask="url(#mask1)">
<path fill-rule="evenodd" clip-rule="evenodd" d="M32.9074 0.0900879H7.6124C4.9946 0.0900879 2.85251 2.19077 2.85251 4.75896V21.0644L5.19064 19.7385V4.75806C5.19064 3.44919 6.27697 2.38354 7.6124 2.38354H32.9074C34.2428 2.38354 35.33 3.44919 35.33 4.75896V45.7762C35.33 47.086 34.2428 48.1526 32.9074 48.1526H7.6124C6.27697 48.1526 5.19064 47.086 5.19064 45.7762V41.8875H2.85251V45.7771C2.85251 48.3444 4.9946 50.4451 7.6124 50.4451H32.9074C35.5261 50.4451 37.6682 48.3444 37.6682 45.7762V4.75896C37.6682 2.19167 35.5261 0.0900879 32.9074 0.0900879Z" fill="#3C499D"/>
</g>
</g>
<defs>
<clipPath id="clip0">
<rect width="250" height="50.4451" fill="white"/>
</clipPath>
</defs>
</svg>
